<?xml version="1.0" encoding="UTF-8" standalone="no"?>
<!--
  Licensed to the Apache Software Foundation (ASF) under one
  or more contributor license agreements.  See the NOTICE file
  distributed with this work for additional information
  regarding copyright ownership.  The ASF licenses this file
  to you under the Apache License, Version 2.0 (the
  "License"); you may not use this file except in compliance
  with the License.  You may obtain a copy of the License at
    http://www.apache.org/licenses/LICENSE-2.0
  Unless required by applicable law or agreed to in writing,
  software distributed under the License is distributed on an
  "AS IS" BASIS, WITHOUT WARRANTIES OR CONDITIONS OF ANY
  KIND, either express or implied.  See the License for the
  specific language governing permissions and limitations
  under the License.
-->

<svg
   width="300"
   height="69"
   viewBox="0 0 300 69"
   version="1.1"
   xml:space="preserve"
   style="clip-rule:evenodd;fill-rule:evenodd;stroke-linejoin:round;stroke-miterlimit:2"
   id="svg18"
   sodipodi:docname="Asamkhyeya.svg"
   inkscape:version="1.3.2 (091e20ef0f, 2023-11-25)"
   xmlns:inkscape="http://www.inkscape.org/namespaces/inkscape"
   xmlns:sodipodi="http://sodipodi.sourceforge.net/DTD/sodipodi-0.dtd"
   xmlns="http://www.w3.org/2000/svg"
   xmlns:svg="http://www.w3.org/2000/svg"><defs
   id="defs18">
        
    
            
        
                
            
                    
                
                        
                    
                            
                        
                                
                                
                                
                                
                                
                                
                                
                                
                            </defs><sodipodi:namedview
   id="namedview18"
   pagecolor="#ffffff"
   bordercolor="#000000"
   borderopacity="0.25"
   inkscape:showpageshadow="2"
   inkscape:pageopacity="0.0"
   inkscape:pagecheckerboard="0"
   inkscape:deskcolor="#d1d1d1"
   inkscape:zoom="1.7225759"
   inkscape:cx="154.71016"
   inkscape:cy="31.348401"
   inkscape:window-width="1366"
   inkscape:window-height="740"
   inkscape:window-x="0"
   inkscape:window-y="0"
   inkscape:window-maximized="1"
   inkscape:current-layer="svg18" />
    
    
    
    
    
    
    
    
    
    
    
<g
   id="g47"
   transform="translate(-0.354549,3.652884)"><path
     d="m 61.491388,11.992118 c -6.47,0 -12.43,3.64 -18.19,10 -5.66,-6.46 -11.72,-10 -18.49,-10 -11.21,0 -19.39,8 -19.39,18.77 0,10.769998 8.18,18.669998 19.39,18.669998 6.89,0 12.23,-3.23 18.19,-9.669998 5.76,6.459998 11.62,9.689998 18.49,9.689998 11.21,-0.02 19.39,-7.89 19.39,-18.689998 0,-10.8 -8.18,-18.77 -19.39,-18.77 z m -36.6,26.14 c -4.75,0 -7.58,-3.13 -7.58,-7.27 0,-4.14 2.83,-7.36 7.58,-7.36 4,0 7.27,3.22 10.81,7.56 -3.34,4.04 -6.87,7.07 -10.81,7.07 z m 36.26,0 c -3.94,0 -7.27,-3.13 -10.81,-7.27 3.64,-4.34 6.77,-7.36 10.81,-7.36 4.75,0 7.55,3.26 7.55,7.36 0,4.1 -2.8,7.27 -7.55,7.27 z"
     style="fill:#484848;fill-rule:nonzero"
     id="path1" /><text
     xml:space="preserve"
     style="font-size:32.3289px;font-family:edelsans;-inkscape-font-specification:'edelsans, Normal';text-align:center;text-anchor:middle;fill:#484848;fill-opacity:0.94902;stroke:#484848;stroke-width:0.5;stroke-linejoin:round;stroke-dasharray:none;stroke-opacity:1;paint-order:fill markers stroke"
     x="187.52661"
     y="43.471268"
     id="text41"><tspan
       sodipodi:role="line"
       id="tspan41"
       x="187.52661"
       y="43.471268"
       style="font-style:normal;font-variant:normal;font-weight:normal;font-stretch:normal;font-size:32.3289px;font-family:'AvantGarde LT Medium';-inkscape-font-specification:'AvantGarde LT Medium, Normal';font-variant-ligatures:normal;font-variant-caps:normal;font-variant-numeric:normal;font-variant-east-asian:normal;fill:#484848;fill-opacity:0.94902;stroke:#484848;stroke-width:0.5;stroke-dasharray:none;stroke-opacity:1">Asamkhyeya</tspan></text><path
     d="m 291.48771,22.39443 h -0.85 v 2.66 h -0.55 v -2.66 h -0.85 v -0.48 h 2.25 z m 3.16,0.65 -0.88,2 h -0.3 l -0.91,-2.1 v 2.09 h -0.54 v -3.12 h 0.68 l 0.94,2.28 1,-2.28 h 0.65 v 3.14 h -0.55 z"
     style="fill:#484848;fill-rule:nonzero"
     id="path18" /><path
     id="path42"
     style="fill:#ffffff;fill-rule:nonzero"
     sodipodi:type="inkscape:offset"
     inkscape:radius="-2.9436324"
     inkscape:original="M 30.810547 11.992188 C 19.600547 11.992188 11.421875 19.991719 11.421875 30.761719 C 11.421875 41.531717 19.600547 49.431641 30.810547 49.431641 C 37.700547 49.431641 43.041953 46.201717 49.001953 39.761719 C 54.761953 46.221717 60.622188 49.451172 67.492188 49.451172 C 78.702188 49.431172 86.880859 41.561717 86.880859 30.761719 C 86.880859 19.961719 78.702187 11.992187 67.492188 11.992188 C 61.022188 11.992188 55.060781 15.632188 49.300781 21.992188 C 43.640781 15.532187 37.580547 11.992187 30.810547 11.992188 z M 30.890625 23.501953 C 34.890625 23.501953 38.161172 26.7225 41.701172 31.0625 C 38.361172 35.1025 34.830625 38.132812 30.890625 38.132812 C 26.140625 38.132812 23.310547 35.001328 23.310547 30.861328 C 23.310547 26.721328 26.140625 23.501953 30.890625 23.501953 z M 67.152344 23.501953 C 71.902344 23.501953 74.701172 26.761328 74.701172 30.861328 C 74.701172 34.961328 71.902344 38.132812 67.152344 38.132812 C 63.212344 38.132812 59.881797 35.001328 56.341797 30.861328 C 59.981797 26.521328 63.112344 23.501953 67.152344 23.501953 z "
     d="m 30.810547,14.935547 c -9.809593,0 -16.445313,6.546432 -16.445313,15.826172 0,9.279737 6.618283,15.726562 16.445313,15.726562 5.970041,0 10.333501,-2.569936 16.03125,-8.726562 a 2.9439267,2.9439267 0 0 1 4.357422,0.04102 c 5.424283,6.083483 10.345471,8.705079 16.292968,8.705078 9.831575,-0.02018 16.445313,-6.434134 16.445313,-15.746093 0,-9.31388 -6.630469,-15.826173 -16.445313,-15.826172 -5.365942,0 -10.553006,3.008031 -16.009765,9.033203 a 2.9439267,2.9439267 0 0 1 -4.396485,-0.03711 C 41.761013,17.854076 36.5544,14.935546 30.810547,14.935547 Z m 0.08008,5.623047 c 2.790006,0 5.279719,1.161509 7.367187,2.759765 2.087469,1.598257 3.89938,3.645101 5.72461,5.882813 a 2.9439267,2.9439267 0 0 1 -0.01172,3.736328 c -3.528495,4.268 -7.630756,8.138672 -13.080078,8.138672 -3.02187,0 -5.758176,-1.052453 -7.652344,-2.945313 -1.894167,-1.892859 -2.871093,-4.528784 -2.871094,-7.269531 0,-2.740747 0.968959,-5.381797 2.853516,-7.296875 1.884557,-1.915077 4.629897,-3.005859 7.669922,-3.005859 z m 36.261719,0 c 3.048288,0 5.792048,1.110191 7.664062,3.03125 1.872015,1.921058 2.828125,4.551672 2.828125,7.271484 0,2.719812 -0.964095,5.347155 -2.845703,7.246094 -1.881608,1.898939 -4.616352,2.96875 -7.646484,2.96875 -5.499713,0 -9.390696,-4.026864 -13.046875,-8.302735 a 2.9439267,2.9439267 0 0 1 -0.01953,-3.804687 c 1.871016,-2.230826 3.67435,-4.227219 5.753907,-5.775391 2.079557,-1.548171 4.559175,-2.634765 7.3125,-2.634765 z"
     transform="translate(-6)" /></g></svg>
